; XNC file generated by gerbonara
M48
METRIC
T01C0000.80000
%
T01
G05
X-018.00000Y0030.00000
X0000.00000Y0000.00000
X-032.00000Y-006.00000
X0030.00000Y-018.00000
X0030.00000Y0004.00000
X0000.00000Y-032.00000
X-030.00000Y0014.00000
X0005.00000Y0022.00000
X0026.00000Y0024.00000
X-022.50000Y-014.00000
X-022.50000Y-011.00000
X0015.50000Y0032.00000
X-006.50000Y0010.00000
X-009.50000Y0010.00000
X0021.50000Y0008.00000
X0000.00000Y0002.00000
X-018.00000Y0035.00000
X-032.00000Y-003.46000
X0030.00000Y-015.46000
X0030.00000Y0006.54000
X0000.00000Y-029.46000
X-030.00000Y0016.54000
X0007.50000Y0024.50000
X0026.00000Y0026.54000
X0008.00000Y0042.00000
X-008.00000Y0035.00000
X-009.00000Y0043.00000
X0015.00000Y0043.00000
X0016.50000Y0035.00000
X-005.50000Y0010.00000
X-008.50000Y0010.00000
X0026.50000Y0008.00000
X-026.00000Y0041.08000
X0010.00000Y0000.00000
X0030.00000Y-012.92000
X0030.00000Y0009.08000
X0000.00000Y-026.92000
X0000.00000Y-009.14000
X0026.00000Y0029.08000
X0010.00000Y0002.00000
X0030.00000Y-010.38000
X0030.00000Y0011.62000
X0000.00000Y-024.38000
X0000.00000Y-004.06000
X0026.00000Y0031.62000
X0010.00000Y0004.00000
X0030.00000Y-007.84000
X0030.00000Y0014.16000
X0000.00000Y-021.84000
X0000.00000Y-001.52000
X0026.00000Y0034.16000
X0010.00000Y0006.00000
X-032.00000Y-000.92000
X-021.50000Y-014.00000
X0010.00000Y0008.00000
X-032.00000Y0001.62000
X-021.50000Y-011.00000
X0010.00000Y0010.00000
X0000.00000Y-019.30000
X0010.00000Y0012.00000
X0000.00000Y-016.76000
X0010.00000Y0014.00000
X0000.00000Y-014.22000
X0010.00000Y0016.00000
X0000.00000Y-011.68000
X0010.00000Y0018.00000
X0000.00000Y-006.60000
X0010.00000Y0020.00000
X0000.00000Y0001.02000
X0000.00000Y0004.00000
X0030.00000Y-005.30000
X0000.00000Y0006.00000
X0030.00000Y-002.76000
X0035.00000Y-010.38000
X-050.00000Y-042.00000
X0000.00000Y0008.00000
X0030.00000Y0016.70000
X0000.00000Y0010.00000
X0030.00000Y0019.24000
X0000.00000Y0012.00000
X0030.00000Y0021.78000
X0035.00000Y0012.89000
X0050.00000Y-042.00000
X0000.00000Y0014.00000
X0026.00000Y0036.70000
X0000.00000Y0016.00000
X-030.00000Y0019.08000
X0000.00000Y0018.00000
X-030.00000Y0021.62000
X0002.50000Y0018.00000
X0005.00000Y0024.50000
X0000.00000Y0020.00000
X0001.50000Y0018.00000
X0010.00000Y0020.00000
X0016.50000Y0032.00000
X0015.50000Y0035.00000
X0008.00000Y0040.00000
X-008.00000Y0030.00000
X-018.00000Y0030.00000
X-026.00000Y0036.00000
X-026.00000Y0038.54000
X0000.00000Y0000.00000
X0005.00000Y0022.00000
X-015.00000Y0037.00000
X0005.00000Y0000.00000
X0009.00000Y0037.00000
M30