G04 Gerber file generated by Gerbonara*
%MOMM*%
%FSLAX45Y45*%
%IPPOS*%
G75
%LPD*%
%ADD10R,1.5X1.5*%
%ADD11C,0.508*%
%ADD12C,0.254*%
D10*
X-001800000Y003000000D03*
X0Y0D03*
X-003200000Y-000600000D03*
X003000000Y-001800000D03*
X003000000Y000400000D03*
X0Y-003200000D03*
X-003000000Y001400000D03*
X000500000Y002200000D03*
X002600000Y002400000D03*
X-002250000Y-001400000D03*
X-002250000Y-001100000D03*
X001550000Y003200000D03*
X-000650000Y001000000D03*
X-000950000Y001000000D03*
X002150000Y000800000D03*
D11*
X-001800000Y003000000D02*
X0Y0D01*
X-001800000Y003000000D02*
X-003200000Y-000600000D01*
X-001800000Y003000000D02*
X003000000Y-001800000D01*
X-001800000Y003000000D02*
X003000000Y000400000D01*
X-001800000Y003000000D02*
X0Y-003200000D01*
X-001800000Y003000000D02*
X-003000000Y001400000D01*
X-001800000Y003000000D02*
X000500000Y002200000D01*
X-001800000Y003000000D02*
X002600000Y002400000D01*
X-001800000Y003000000D02*
X-002250000Y-001400000D01*
X-001800000Y003000000D02*
X-002250000Y-001100000D01*
X-001800000Y003000000D02*
X001550000Y003200000D01*
X-001800000Y003000000D02*
X-000650000Y001000000D01*
X-001800000Y003000000D02*
X-000950000Y001000000D01*
X-001800000Y003000000D02*
X002150000Y000800000D01*
D10*
X0Y000200000D03*
X-001800000Y003500000D03*
X-003200000Y-000346000D03*
X003000000Y-001546000D03*
X003000000Y000654000D03*
X0Y-002946000D03*
X-003000000Y001654000D03*
X000750000Y002450000D03*
X002600000Y002654000D03*
X000800000Y004200000D03*
X-000800000Y003500000D03*
X-000900000Y004300000D03*
X001500000Y004300000D03*
X001650000Y003500000D03*
X-000550000Y001000000D03*
X-000850000Y001000000D03*
X002650000Y000800000D03*
X-002600000Y004108000D03*
D11*
X0Y000200000D02*
X-001800000Y003500000D01*
X0Y000200000D02*
X-003200000Y-000346000D01*
X0Y000200000D02*
X003000000Y-001546000D01*
X0Y000200000D02*
X003000000Y000654000D01*
X0Y000200000D02*
X0Y-002946000D01*
X0Y000200000D02*
X-003000000Y001654000D01*
X0Y000200000D02*
X000750000Y002450000D01*
X0Y000200000D02*
X002600000Y002654000D01*
X0Y000200000D02*
X000800000Y004200000D01*
X0Y000200000D02*
X-000800000Y003500000D01*
X0Y000200000D02*
X-000900000Y004300000D01*
X0Y000200000D02*
X001500000Y004300000D01*
X0Y000200000D02*
X001650000Y003500000D01*
X0Y000200000D02*
X-000550000Y001000000D01*
X0Y000200000D02*
X-000850000Y001000000D01*
X0Y000200000D02*
X002650000Y000800000D01*
X0Y000200000D02*
X-002600000Y004108000D01*
D10*
X001000000Y0D03*
X003000000Y-001292000D03*
X003000000Y000908000D03*
X0Y-002692000D03*
X0Y-000914000D03*
X002600000Y002908000D03*
D12*
X001000000Y0D02*
X003000000Y-001292000D01*
X001000000Y0D02*
X003000000Y000908000D01*
X001000000Y0D02*
X0Y-002692000D01*
X001000000Y0D02*
X0Y-000914000D01*
X001000000Y0D02*
X002600000Y002908000D01*
D10*
X001000000Y000200000D03*
X003000000Y-001038000D03*
X003000000Y001162000D03*
X0Y-002438000D03*
X0Y-000406000D03*
X002600000Y003162000D03*
D12*
X001000000Y000200000D02*
X003000000Y-001038000D01*
X001000000Y000200000D02*
X003000000Y001162000D01*
X001000000Y000200000D02*
X0Y-002438000D01*
X001000000Y000200000D02*
X0Y-000406000D01*
X001000000Y000200000D02*
X002600000Y003162000D01*
D10*
X001000000Y000400000D03*
X003000000Y-000784000D03*
X003000000Y001416000D03*
X0Y-002184000D03*
X0Y-000152000D03*
X002600000Y003416000D03*
D12*
X001000000Y000400000D02*
X003000000Y-000784000D01*
X001000000Y000400000D02*
X003000000Y001416000D01*
X001000000Y000400000D02*
X0Y-002184000D01*
X001000000Y000400000D02*
X0Y-000152000D01*
X001000000Y000400000D02*
X002600000Y003416000D01*
D10*
X001000000Y000600000D03*
X-003200000Y-000092000D03*
X-002150000Y-001400000D03*
D12*
X001000000Y000600000D02*
X-003200000Y-000092000D01*
X001000000Y000600000D02*
X-002150000Y-001400000D01*
D10*
X001000000Y000800000D03*
X-003200000Y000162000D03*
X-002150000Y-001100000D03*
D12*
X001000000Y000800000D02*
X-003200000Y000162000D01*
X001000000Y000800000D02*
X-002150000Y-001100000D01*
D10*
X001000000Y001000000D03*
X0Y-001930000D03*
D12*
X001000000Y001000000D02*
X0Y-001930000D01*
D10*
X001000000Y001200000D03*
X0Y-001676000D03*
D12*
X001000000Y001200000D02*
X0Y-001676000D01*
D10*
X001000000Y001400000D03*
X0Y-001422000D03*
D12*
X001000000Y001400000D02*
X0Y-001422000D01*
D10*
X001000000Y001600000D03*
X0Y-001168000D03*
D12*
X001000000Y001600000D02*
X0Y-001168000D01*
D10*
X001000000Y001800000D03*
X0Y-000660000D03*
D12*
X001000000Y001800000D02*
X0Y-000660000D01*
D10*
X001000000Y002000000D03*
X0Y000102000D03*
D12*
X001000000Y002000000D02*
X0Y000102000D01*
D10*
X0Y000400000D03*
X003000000Y-000530000D03*
D12*
X0Y000400000D02*
X003000000Y-000530000D01*
D10*
X0Y000600000D03*
X003000000Y-000276000D03*
D12*
X0Y000600000D02*
X003000000Y-000276000D01*
D10*
X003500000Y-001038000D03*
X-005000000Y-004200000D03*
D12*
X003500000Y-001038000D02*
X-005000000Y-004200000D01*
D10*
X0Y000800000D03*
X003000000Y001670000D03*
D12*
X0Y000800000D02*
X003000000Y001670000D01*
D10*
X0Y001000000D03*
X003000000Y001924000D03*
D12*
X0Y001000000D02*
X003000000Y001924000D01*
D10*
X0Y001200000D03*
X003000000Y002178000D03*
D12*
X0Y001200000D02*
X003000000Y002178000D01*
D10*
X003500000Y001289000D03*
X005000000Y-004200000D03*
D12*
X003500000Y001289000D02*
X005000000Y-004200000D01*
D10*
X0Y001400000D03*
X002600000Y003670000D03*
D12*
X0Y001400000D02*
X002600000Y003670000D01*
D10*
X0Y001600000D03*
X-003000000Y001908000D03*
D12*
X0Y001600000D02*
X-003000000Y001908000D01*
D10*
X0Y001800000D03*
X-003000000Y002162000D03*
D12*
X0Y001800000D02*
X-003000000Y002162000D01*
D10*
X000250000Y001800000D03*
X000500000Y002450000D03*
D12*
X000250000Y001800000D02*
X000500000Y002450000D01*
D10*
X0Y002000000D03*
X000150000Y001800000D03*
D12*
X0Y002000000D02*
X000150000Y001800000D01*
D10*
X001000000Y002000000D03*
X001650000Y003200000D03*
X001550000Y003500000D03*
D12*
X001000000Y002000000D02*
X001650000Y003200000D01*
X001000000Y002000000D02*
X001550000Y003500000D01*
D10*
X000800000Y004000000D03*
X-000800000Y003000000D03*
D12*
X000800000Y004000000D02*
X-000800000Y003000000D01*
D10*
X-001800000Y003000000D03*
X-002600000Y003600000D03*
D12*
X-001800000Y003000000D02*
X-002600000Y003600000D01*
D10*
X-002600000Y003854000D03*
X0Y0D03*
D12*
X-002600000Y003854000D02*
X0Y0D01*
D10*
X000500000Y002200000D03*
X-001500000Y003700000D03*
D12*
X000500000Y002200000D02*
X-001500000Y003700000D01*
D10*
X000500000Y0D03*
X000900000Y003700000D03*
D12*
X000500000Y0D02*
X000900000Y003700000D01*
M02*