M48
METRIC,TZ
FMAT,2
T07C0.400
T06C0.500
T04C0.800
T02C0.900
T01C1.000
T03C1.200
T05C1.300
T08C2.500
%
T01
X-15000Y-10000
X15000Y-10000
X-15000Y10000
X15000Y10000
X-22000Y-4000
X22000Y8000
X22000Y-14000
X-10000Y-25000
X-26000Y-35000
X18000Y-19000
X-10000Y24000
X10000Y24000
X-22000Y-9000
X5000Y-16000
X-5000Y-6000
X5000Y-6000
X-5000Y6000
X5000Y6000
X-20000Y-5000
X20000Y-5000
X0Y-35000
X0Y22000
T02
X-22000Y10000
X-21150Y0
X-22150Y-2540
X-24150Y-1270
X16850Y-35000
X10000Y-42000
X-20150Y11430
X-4650Y-10000
X-7650Y-10000
T03
X6000Y-40000
X10000Y-40000
X-30000Y-36000
X-26000Y-36000
X-22000Y-36000
X22750Y-8000
X25250Y-8000
X-14500Y-42500
X-14500Y-37500
X-9500Y-42500
X-9500Y-37500
X9500Y-42500
X9500Y-37500
X14500Y-42500
X14500Y-37500
T04
X20000Y25000
X20000Y23000
X20000Y21000
X20000Y19000
X20000Y17000
X20000Y15000
X20000Y13000
X20000Y11000
X20000Y3000
X20000Y1000
X20000Y-1000
X20000Y-3000
X20000Y-5000
X20000Y-7000
X20000Y-9000
X20000Y-11000
T05
X-38350Y-1500
X-35810Y-1500
X-33270Y-1500
X-30730Y-1500
X-28190Y-1500
X-25650Y-1500
X-20540Y-24500
X-18000Y-24500
X-15460Y-24500
X-20540Y-35500
X-18000Y-35500
X-15460Y-35500
X-33810Y-18000
X-31270Y-18000
X-28730Y-18000
X-26190Y-18000
X19650Y-30000
X22190Y-30000
X24730Y-30000
X27270Y-30000
X29810Y-30000
X32350Y-30000
X-53000Y42000
X-47000Y42000
X-50000Y39000
X-50000Y45000
X47000Y42000
X53000Y42000
X50000Y39000
X50000Y45000
T06
X42000Y18000
X42000Y-4000
T07
X-50000Y42000
X50000Y42000
T08
X-38000Y-30000
X38000Y-30000
X-38000Y20000
X38000Y20000
M30